<svg width="62" height="25" viewBox="0 0 62 25" fill="none" xmlns="http://www.w3.org/2000/svg">
<path d="M48.3945 12.146C48.3675 12.583 48.3395 12.992 48.2035 13.429H38.6255C38.7885 14.821 39.5785 15.667 41.0745 15.667C42.5705 15.667 43.4415 15.039 44.1495 14.275L47.3865 16.185C45.8365 18.177 43.4965 19.378 40.5845 19.378C36.5575 19.378 33.7545 16.076 34.3265 12.037C34.8705 8.21701 38.3535 5.18701 42.1635 5.18701C45.9735 5.18701 48.7755 8.29801 48.3935 12.147M42.1365 8.29801C40.6395 8.29801 39.5515 9.30801 39.0345 10.809L44.2315 10.699L44.2585 10.072C44.0955 8.87201 43.3065 8.29801 42.1365 8.29801Z" fill="white"/>
<path d="M27.345 19.378C23.345 19.378 20.515 16.049 21.087 12.037C21.631 8.217 25.141 5.187 28.923 5.187C31.753 5.187 33.793 6.633 34.773 8.953L31.046 10.863C30.637 9.799 29.903 9.363 28.841 9.363C27.127 9.363 25.685 10.7 25.44 12.528C25.195 14.138 26.093 15.203 27.617 15.203C28.895 15.203 29.957 14.52 30.555 13.511L33.848 15.857C32.269 18.15 29.929 19.378 27.345 19.378ZM14.959 19.105L16.864 5.46H21.272L19.367 19.105H14.959ZM16.27 0.00199997L13.602 19.154H9.52996L9.71196 17.931C8.62004 18.8647 7.23064 19.3778 5.79396 19.378C2.06596 19.378 -0.492038 16.076 0.0799621 12.037C0.623962 8.217 3.86196 5.187 7.37196 5.187C8.78596 5.187 9.95596 5.705 10.882 6.415L11.862 0.00199997H16.27ZM6.50096 15.175C8.10596 15.175 9.57596 13.756 9.82096 12.037C10.038 10.536 9.13996 9.389 7.72496 9.389C6.14696 9.389 4.67796 10.809 4.43296 12.528C4.21496 14.028 5.11296 15.175 6.50096 15.175ZM19.599 3.807C18.184 3.807 17.313 2.719 17.477 1.659C17.587 0.816 18.511 0 19.735 0C21.15 0 22.021 1.088 21.858 2.148C21.748 2.991 20.823 3.807 19.599 3.807ZM61.971 5.46L57.971 18.784C56.491 23.734 55.704 24.844 47.607 24.799L48.629 21.384C52.686 21.384 52.65 21.384 53.344 19.108C51.216 19.108 49.321 17.533 49.266 15.211L48.856 5.459H53.423V13.463C53.45 13.737 53.341 14.527 54.084 14.527C54.828 14.527 54.906 13.737 55.015 13.464L57.402 5.46H61.971Z" fill="white"/>
</svg>
