<svg width="20" height="20" viewBox="0 0 20 20" fill="none" xmlns="http://www.w3.org/2000/svg">
<g clip-path="url(#clip0_57_3097)">
<path d="M16 0H4C1.79086 0 0 1.79086 0 4V16C0 18.2091 1.79086 20 4 20H16C18.2091 20 20 18.2091 20 16V4C20 1.79086 18.2091 0 16 0Z" fill="url(#paint0_linear_57_3097)"/>
<path d="M16 0.5H4C2.067 0.5 0.5 2.067 0.5 4V16C0.5 17.933 2.067 19.5 4 19.5H16C17.933 19.5 19.5 17.933 19.5 16V4C19.5 2.067 17.933 0.5 16 0.5Z" stroke="white" stroke-opacity="0.05"/>
<path d="M4.82422 4.00415C5.32711 3.99538 5.84752 4.00322 6.35219 4.00328L9.26806 4.00334L10.7213 4.0025C11.6401 3.99972 12.3801 3.99048 13.2327 4.4347C14.2148 4.93818 14.9613 5.82604 15.3062 6.90082C15.6309 7.92937 15.5845 9.20798 15.105 10.1802C14.5405 11.3252 13.7292 12.0147 12.5533 12.4056C12.7018 12.5356 12.8582 12.704 12.9967 12.8481L13.7038 13.5891L16.0001 15.9955L13.3259 16L13.0255 15.9999L9.31397 12.0947L8.2328 10.9514C8.05153 10.7608 7.7985 10.5153 7.63511 10.3222L7.71878 10.3236C8.51545 10.3372 9.34608 10.3261 10.1453 10.3256L10.9394 10.3264C11.2114 10.3267 11.4709 10.3387 11.7372 10.2756C12.09 10.1924 12.4139 10.0103 12.673 9.7493C13.0456 9.37515 13.2459 8.84553 13.2508 8.3117C13.2528 7.77674 13.049 7.26287 12.6842 6.88302C12.4492 6.63641 12.1171 6.4461 11.7915 6.3632C11.5245 6.29519 11.2261 6.31036 10.9508 6.31083L10.1462 6.31194L7.03054 6.31031L4.82422 4.00415Z" fill="#00AB4C"/>
<path d="M7.28027 7.14746C7.30329 7.17667 7.29472 8.43984 7.29473 8.57401L7.29512 11.125L7.29468 12.9339C7.2945 13.2656 7.30382 13.6535 7.28723 13.9789C6.75184 13.4389 6.18707 12.8326 5.66531 12.2771C5.47996 12.0707 5.26507 11.8611 5.07178 11.6579C4.71867 11.2791 4.36138 10.9046 4 10.5341L7.28027 7.14746Z" fill="#00AB4C"/>
</g>
<defs>
<linearGradient id="paint0_linear_57_3097" x1="10" y1="20" x2="10" y2="0" gradientUnits="userSpaceOnUse">
<stop stop-color="#0A0B0A"/>
<stop offset="1" stop-color="#1F2120"/>
</linearGradient>
<clipPath id="clip0_57_3097">
<rect width="20" height="20" fill="white"/>
</clipPath>
</defs>
</svg>
